<svg width="27" height="32" viewBox="0 0 27 32" fill="none" xmlns="http://www.w3.org/2000/svg">
<path d="M22.1149 30.24C20.3999 31.9025 18.5274 31.64 16.7249 30.8525C14.8174 30.0475 13.0674 30.0125 11.0549 30.8525C8.53489 31.9375 7.20489 31.6225 5.69989 30.24C-2.84011 21.4375 -1.58011 8.0325 8.11489 7.5425C10.4774 7.665 12.1224 8.8375 13.5049 8.9425C15.5699 8.5225 17.5474 7.315 19.7524 7.4725C22.3949 7.6825 24.3899 8.7325 25.7024 10.6225C20.2424 13.895 21.5374 21.0875 26.5424 23.1C25.5449 25.725 24.2499 28.3325 22.0974 30.2575L22.1149 30.24ZM13.3299 7.4375C13.0674 3.535 16.2349 0.315 19.8749 0C20.3824 4.515 15.7799 7.875 13.3299 7.4375Z" fill="black"/>
</svg>
