<svg width="38" height="38" viewBox="0 0 38 38" fill="none" xmlns="http://www.w3.org/2000/svg">
<circle cx="19" cy="19" r="19" fill="#A52A2D"/>
<path d="M13.8184 20.7006H20.7275V22.4595H13.8184V20.7006ZM13.8184 16.3032H24.182V18.0622H13.8184V16.3032ZM13.8184 25.0979H18.1365V26.8569H13.8184V25.0979Z" fill="white"/>
<path d="M26.7727 9.21409H24.1818V8.33462C24.1818 7.86812 23.9998 7.42073 23.6759 7.09086C23.352 6.761 22.9126 6.57568 22.4545 6.57568H15.5455C15.0874 6.57568 14.648 6.761 14.3241 7.09086C14.0002 7.42073 13.8182 7.86812 13.8182 8.33462V9.21409H11.2273C10.7692 9.21409 10.3298 9.39941 10.0059 9.72927C9.68198 10.0591 9.5 10.5065 9.5 10.973V29.4419C9.5 29.9084 9.68198 30.3558 10.0059 30.6856C10.3298 31.0155 10.7692 31.2008 11.2273 31.2008H26.7727C27.2308 31.2008 27.6702 31.0155 27.9941 30.6856C28.318 30.3558 28.5 29.9084 28.5 29.4419V10.973C28.5 10.5065 28.318 10.0591 27.9941 9.72927C27.6702 9.39941 27.2308 9.21409 26.7727 9.21409ZM15.5455 8.33462H22.4545V11.8525H15.5455V8.33462ZM26.7727 29.4419H11.2273V10.973H13.8182V13.6114H24.1818V10.973H26.7727V29.4419Z" fill="white"/>
</svg>
