<svg width="22" height="25" viewBox="0 0 22 25" fill="none" xmlns="http://www.w3.org/2000/svg">
<path d="M21.75 21.75V4.83333C21.75 3.50054 20.6661 2.41667 19.3333 2.41667H16.9167V0H14.5V2.41667H7.25V0H4.83333V2.41667H2.41667C1.08387 2.41667 0 3.50054 0 4.83333V21.75C0 23.0828 1.08387 24.1667 2.41667 24.1667H19.3333C20.6661 24.1667 21.75 23.0828 21.75 21.75ZM7.25 19.3333H4.83333V16.9167H7.25V19.3333ZM7.25 14.5H4.83333V12.0833H7.25V14.5ZM12.0833 19.3333H9.66667V16.9167H12.0833V19.3333ZM12.0833 14.5H9.66667V12.0833H12.0833V14.5ZM16.9167 19.3333H14.5V16.9167H16.9167V19.3333ZM16.9167 14.5H14.5V12.0833H16.9167V14.5ZM19.3333 8.45833H2.41667V6.04167H19.3333V8.45833Z" fill="#A52A2D" fill-opacity="0.8"/>
</svg>
