<svg width="23" height="23" viewBox="0 0 23 23" fill="none" xmlns="http://www.w3.org/2000/svg">
<path d="M18.0919 22.4375C17.1388 22.4375 15.7999 22.0928 13.795 20.9727C11.357 19.6055 9.47128 18.3433 7.04647 15.9248C4.70858 13.5884 3.57089 12.0757 1.9786 9.17826C0.179775 5.90677 0.486416 4.19193 0.829189 3.45902C1.23739 2.58304 1.83993 2.05912 2.61874 1.5391C3.0611 1.24927 3.52922 1.00083 4.01718 0.79691C4.06601 0.775914 4.11142 0.755895 4.15194 0.737828C4.39364 0.628942 4.75985 0.464391 5.22372 0.640172C5.53329 0.756383 5.80966 0.994176 6.24228 1.42142C7.12948 2.29642 8.34188 4.24515 8.78915 5.20218C9.08944 5.8472 9.28817 6.27299 9.28866 6.75052C9.28866 7.30961 9.00741 7.74076 8.6661 8.20609C8.60214 8.29349 8.53866 8.37699 8.47714 8.45804C8.10556 8.94633 8.02401 9.08744 8.07772 9.33939C8.18661 9.84574 8.99862 11.3531 10.3331 12.6846C11.6676 14.0162 13.1314 14.7769 13.6397 14.8853C13.9024 14.9414 14.0465 14.8565 14.5504 14.4717C14.6226 14.4165 14.6969 14.3594 14.7745 14.3023C15.295 13.9151 15.7061 13.6412 16.252 13.6412H16.255C16.7301 13.6412 17.1368 13.8472 17.8106 14.187C18.6895 14.6304 20.6969 15.8272 21.5772 16.7154C22.0055 17.147 22.2442 17.4224 22.3609 17.7315C22.5367 18.1968 22.3712 18.5616 22.2633 18.8057C22.2452 18.8462 22.2252 18.8907 22.2042 18.94C21.9987 19.4271 21.7487 19.8942 21.4576 20.3355C20.9386 21.1119 20.4127 21.7129 19.5348 22.1216C19.0839 22.3349 18.5906 22.4429 18.0919 22.4375Z" fill="#A52A2D"/>
</svg>
