<svg width="74" height="58" viewBox="0 0 74 58" fill="none" xmlns="http://www.w3.org/2000/svg">
<path d="M37 42.125C42.799 42.125 47.5 37.424 47.5 31.625C47.5 25.826 42.799 21.125 37 21.125C31.201 21.125 26.5 25.826 26.5 31.625C26.5 37.424 31.201 42.125 37 42.125Z" fill="white"/>
<path d="M65.875 10.625H56.1953C55.7031 10.625 55.0928 10.3067 54.617 9.80469L50.3613 3.08797C50.294 2.98136 50.2188 2.87991 50.1365 2.78445C48.6665 1.07 46.6797 0.125 44.5469 0.125H29.4531C27.3203 0.125 25.3335 1.07 23.8635 2.78445C23.7812 2.87991 23.706 2.98136 23.6388 3.08797L19.383 9.81453C19.0187 10.2116 18.5069 10.6348 17.9688 10.6348V9.32234C17.9688 8.62615 17.6922 7.95847 17.1999 7.46619C16.7076 6.97391 16.0399 6.69734 15.3438 6.69734H11.4062C10.7101 6.69734 10.0424 6.97391 9.5501 7.46619C9.05781 7.95847 8.78125 8.62615 8.78125 9.32234V10.6348H8.125C6.03709 10.637 4.03531 11.4674 2.55893 12.9438C1.08255 14.4202 0.252172 16.4219 0.25 18.5098V50C0.252172 52.0879 1.08255 54.0897 2.55893 55.5661C4.03531 57.0424 6.03709 57.8728 8.125 57.875H65.875C67.9629 57.8728 69.9647 57.0424 71.4411 55.5661C72.9174 54.0897 73.7478 52.0879 73.75 50V18.5C73.7478 16.4121 72.9174 14.4103 71.4411 12.9339C69.9647 11.4576 67.9629 10.6272 65.875 10.625ZM37 47.375C33.8849 47.375 30.8398 46.4513 28.2498 44.7206C25.6597 42.99 23.641 40.5302 22.4489 37.6523C21.2568 34.7743 20.9449 31.6075 21.5526 28.5523C22.1604 25.4971 23.6604 22.6907 25.8631 20.4881C28.0657 18.2854 30.8721 16.7854 33.9273 16.1776C36.9825 15.5699 40.1493 15.8818 43.0273 17.0739C45.9052 18.266 48.365 20.2847 50.0956 22.8748C51.8263 25.4648 52.75 28.5099 52.75 31.625C52.7452 35.8007 51.0843 39.804 48.1317 42.7567C45.179 45.7093 41.1757 47.3702 37 47.375Z" fill="white"/>
</svg>
