<svg width="18" height="22" viewBox="0 0 18 22" fill="none" xmlns="http://www.w3.org/2000/svg">
<path d="M11.733 0.25H6.267C5.455 0.25 4.798 0.25 4.267 0.295C3.717 0.342 3.234 0.44 2.787 0.676C2.07746 1.05316 1.50575 1.64553 1.154 2.368C0.931 2.822 0.838 3.312 0.794 3.875C0.75 4.424 0.75 5.102 0.75 5.947V16.053C0.75 16.898 0.75 17.576 0.793 18.125C0.838 18.688 0.931 19.178 1.153 19.632C1.50527 20.3548 2.07772 20.9472 2.788 21.324C3.234 21.56 3.718 21.658 4.266 21.704C4.681 21.74 5.17 21.748 5.75 21.75V14.5C5.75 13.7707 6.03973 13.0712 6.55546 12.5555C7.07118 12.0397 7.77065 11.75 8.5 11.75H9.5C10.2293 11.75 10.9288 12.0397 11.4445 12.5555C11.9603 13.0712 12.25 13.7707 12.25 14.5V21.75C12.7451 21.7543 13.2401 21.7393 13.734 21.705C14.283 21.658 14.766 21.56 15.212 21.324C15.9219 20.947 16.494 20.3546 16.846 19.632C17.069 19.178 17.162 18.688 17.206 18.124C17.25 17.576 17.25 16.898 17.25 16.054V5.947C17.25 5.102 17.25 4.424 17.207 3.875C17.163 3.312 17.069 2.822 16.847 2.368C16.4947 1.64523 15.9223 1.05282 15.212 0.676C14.766 0.44 14.282 0.342 13.734 0.296C13.202 0.25 12.545 0.25 11.734 0.25M4.25 5C4.25 4.80109 4.32902 4.61032 4.46967 4.46967C4.61032 4.32902 4.80109 4.25 5 4.25H7C7.19891 4.25 7.38968 4.32902 7.53033 4.46967C7.67098 4.61032 7.75 4.80109 7.75 5C7.75 5.19891 7.67098 5.38968 7.53033 5.53033C7.38968 5.67098 7.19891 5.75 7 5.75H5C4.80109 5.75 4.61032 5.67098 4.46967 5.53033C4.32902 5.38968 4.25 5.19891 4.25 5ZM5 8.25H7C7.19891 8.25 7.38968 8.32902 7.53033 8.46967C7.67098 8.61032 7.75 8.80109 7.75 9C7.75 9.19891 7.67098 9.38968 7.53033 9.53033C7.38968 9.67098 7.19891 9.75 7 9.75H5C4.80109 9.75 4.61032 9.67098 4.46967 9.53033C4.32902 9.38968 4.25 9.19891 4.25 9C4.25 8.80109 4.32902 8.61032 4.46967 8.46967C4.61032 8.32902 4.80109 8.25 5 8.25ZM10.25 5C10.25 4.80109 10.329 4.61032 10.4697 4.46967C10.6103 4.32902 10.8011 4.25 11 4.25H13C13.1989 4.25 13.3897 4.32902 13.5303 4.46967C13.671 4.61032 13.75 4.80109 13.75 5C13.75 5.19891 13.671 5.38968 13.5303 5.53033C13.3897 5.67098 13.1989 5.75 13 5.75H11C10.8011 5.75 10.6103 5.67098 10.4697 5.53033C10.329 5.38968 10.25 5.19891 10.25 5ZM11 8.25H13C13.1989 8.25 13.3897 8.32902 13.5303 8.46967C13.671 8.61032 13.75 8.80109 13.75 9C13.75 9.19891 13.671 9.38968 13.5303 9.53033C13.3897 9.67098 13.1989 9.75 13 9.75H11C10.8011 9.75 10.6103 9.67098 10.4697 9.53033C10.329 9.38968 10.25 9.19891 10.25 9C10.25 8.80109 10.329 8.61032 10.4697 8.46967C10.6103 8.32902 10.8011 8.25 11 8.25Z" fill="#A52A2D"/>
</svg>
