<svg width="33" height="33" viewBox="0 0 33 33" fill="none" xmlns="http://www.w3.org/2000/svg">
<g clip-path="url(#clip0_863_146)">
<path d="M11.4957 1.08516C8.19849 2.229 5.35498 4.40003 3.38283 7.27937C1.41069 10.1587 0.413866 13.5946 0.538778 17.0823C0.663691 20.5701 1.90376 23.9259 4.07683 26.6567C6.2499 29.3876 9.24144 31.3497 12.612 32.2547C15.3446 32.9598 18.2076 32.9908 20.9548 32.3449C23.4436 31.7859 25.7444 30.5902 27.6322 28.8748C29.5969 27.0349 31.023 24.6943 31.7572 22.1046C32.5552 19.2885 32.6972 16.3269 32.1723 13.4473H16.8273V19.8127H25.7141C25.5364 20.8279 25.1558 21.7969 24.595 22.6616C24.0342 23.5263 23.3047 24.269 22.4502 24.8452C21.365 25.563 20.1417 26.046 18.8588 26.2631C17.5722 26.5024 16.2525 26.5024 14.9659 26.2631C13.6618 25.9935 12.4282 25.4553 11.3436 24.6827C9.60116 23.4493 8.29283 21.6971 7.60531 19.676C6.90616 17.6171 6.90616 15.385 7.60531 13.3261C8.09471 11.8829 8.90374 10.5689 9.97203 9.48212C11.1946 8.21561 12.7423 7.3103 14.4455 6.86552C16.1486 6.42074 17.9414 6.45367 19.6271 6.96071C20.9439 7.36494 22.1481 8.07121 23.1437 9.02321C24.1457 8.02634 25.146 7.02688 26.1446 6.02485C26.6602 5.48602 27.2223 4.97298 27.7302 4.42126C26.2105 3.0071 24.4268 1.9067 22.4811 1.18313C18.938 -0.103377 15.0612 -0.137951 11.4957 1.08516Z" fill="white"/>
<path d="M11.4962 1.08544C15.0614 -0.138506 18.9382 -0.104842 22.4816 1.18083C24.4276 1.90932 26.2106 3.01501 27.7281 4.43443C27.2125 4.98614 26.6685 5.50177 26.1425 6.03802C25.1422 7.03661 24.1428 8.03177 23.1442 9.02349C22.1486 8.07148 20.9444 7.36522 19.6276 6.96099C17.9425 6.45217 16.1498 6.41733 14.4462 6.86029C12.7425 7.30325 11.1938 8.2069 9.96996 9.47208C8.90167 10.5589 8.09264 11.8729 7.60324 13.3161L2.25879 9.17817C4.17178 5.38462 7.484 2.48285 11.4962 1.08544Z" fill="#E33629"/>
<path d="M0.840188 13.2774C1.12745 11.8538 1.60435 10.4751 2.25816 9.17822L7.60261 13.3264C6.90346 15.3853 6.90346 17.6174 7.60261 19.6763C5.82198 21.0513 4.0405 22.4332 2.25816 23.822C0.621436 20.564 0.122264 16.852 0.840188 13.2774Z" fill="#F8BD00"/>
<path d="M16.8273 13.4448H32.1723C32.6972 16.3244 32.5552 19.286 31.7572 22.1022C31.0231 24.6918 29.597 27.0324 27.6322 28.8723C25.9075 27.5265 24.175 26.1911 22.4502 24.8453C23.3053 24.2685 24.0352 23.525 24.596 22.6594C25.1569 21.7937 25.5372 20.8238 25.7141 19.8076H16.8273C16.8247 17.6884 16.8273 15.5666 16.8273 13.4448Z" fill="#587DBD"/>
<path d="M2.25586 23.8219C4.0382 22.4469 5.81969 21.065 7.60031 19.6763C8.28921 21.698 9.5994 23.4504 11.3438 24.683C12.4317 25.452 13.668 25.9858 14.9738 26.2505C16.2604 26.4897 17.5801 26.4897 18.8667 26.2505C20.1496 26.0333 21.3729 25.5503 22.458 24.8325C24.1828 26.1783 25.9153 27.5138 27.6401 28.8596C25.7526 30.5759 23.4517 31.7725 20.9627 32.3323C18.2155 32.9781 15.3525 32.9472 12.6199 32.2421C10.4587 31.665 8.43994 30.6477 6.69023 29.254C4.83827 27.7837 3.32567 25.9307 2.25586 23.8219Z" fill="#319F43"/>
</g>
<defs>
<clipPath id="clip0_863_146">
<rect width="33" height="33" fill="white"/>
</clipPath>
</defs>
</svg>
