<svg width="12" height="12" viewBox="0 0 12 12" fill="none" xmlns="http://www.w3.org/2000/svg">
<path d="M0 10.6286V4.45714C0 4.24 0.0532498 4.03429 0.15975 3.84C0.26625 3.64571 0.413 3.48571 0.6 3.36L5.1 0.274286C5.3625 0.0914286 5.6625 0 6 0C6.3375 0 6.6375 0.0914286 6.9 0.274286L11.4 3.36C11.5875 3.48571 11.7345 3.64571 11.841 3.84C11.9475 4.03429 12.0005 4.24 12 4.45714V10.6286C12 11.0057 11.853 11.3287 11.559 11.5975C11.265 11.8663 10.912 12.0005 10.5 12H8.25C8.0375 12 7.8595 11.9342 7.716 11.8025C7.5725 11.6709 7.5005 11.5081 7.5 11.3143V7.88571C7.5 7.69143 7.428 7.52869 7.284 7.39749C7.14 7.26629 6.962 7.20046 6.75 7.2H5.25C5.0375 7.2 4.8595 7.26583 4.716 7.39749C4.5725 7.52914 4.5005 7.69188 4.5 7.88571V11.3143C4.5 11.5086 4.428 11.6715 4.284 11.8032C4.14 11.9349 3.962 12.0005 3.75 12H1.5C1.0875 12 0.7345 11.8658 0.441 11.5975C0.1475 11.3291 0.0005 11.0062 0 10.6286Z" fill="white"/>
</svg>
