<svg width="28" height="31" viewBox="0 0 28 31" fill="none" xmlns="http://www.w3.org/2000/svg">
<path d="M0 27.25V11.5C0 10.9458 0.12425 10.4208 0.37275 9.925C0.62125 9.42917 0.963667 9.02083 1.4 8.7L11.9 0.825C12.5125 0.358333 13.2125 0.125 14 0.125C14.7875 0.125 15.4875 0.358333 16.1 0.825L26.6 8.7C27.0375 9.02083 27.3805 9.42917 27.629 9.925C27.8775 10.4208 28.0012 10.9458 28 11.5V27.25C28 28.2125 27.657 29.0368 26.971 29.7227C26.285 30.4088 25.4613 30.7512 24.5 30.75H19.25C18.7542 30.75 18.3388 30.582 18.004 30.246C17.6692 29.91 17.5012 29.4947 17.5 29V20.25C17.5 19.7542 17.332 19.3388 16.996 19.004C16.66 18.6692 16.2447 18.5012 15.75 18.5H12.25C11.7542 18.5 11.3388 18.668 11.004 19.004C10.6692 19.34 10.5012 19.7553 10.5 20.25V29C10.5 29.4958 10.332 29.9117 9.996 30.2477C9.66 30.5837 9.24467 30.7512 8.75 30.75H3.5C2.5375 30.75 1.71383 30.4076 1.029 29.7227C0.344166 29.0379 0.00116667 28.2137 0 27.25Z" fill="white"/>
</svg>
