<svg width="27" height="26" viewBox="0 0 27 26" fill="none" xmlns="http://www.w3.org/2000/svg">
<path d="M8.17084 0.507812H19.1714C23.3621 0.507812 26.7671 3.73919 26.7671 7.71627V18.1561C26.7671 20.0679 25.9668 21.9014 24.5423 23.2533C23.1179 24.6051 21.1859 25.3646 19.1714 25.3646H8.17084C3.98014 25.3646 0.575195 22.1332 0.575195 18.1561V7.71627C0.575195 5.80447 1.37545 3.97097 2.79991 2.61912C4.22437 1.26727 6.15635 0.507813 8.17084 0.507812ZM7.90892 2.99349C6.65854 2.99349 5.45938 3.46488 4.57524 4.30395C3.69109 5.14303 3.19438 6.28107 3.19438 7.4677V18.4047C3.19438 20.8779 5.30283 22.8789 7.90892 22.8789H19.4333C20.6837 22.8789 21.8829 22.4075 22.767 21.5684C23.6512 20.7293 24.1479 19.5913 24.1479 18.4047V7.4677C24.1479 4.99445 22.0394 2.99349 19.4333 2.99349H7.90892ZM20.5465 4.85774C20.9806 4.85774 21.397 5.02142 21.704 5.31277C22.011 5.60411 22.1835 5.99926 22.1835 6.41129C22.1835 6.82332 22.011 7.21847 21.704 7.50981C21.397 7.80116 20.9806 7.96484 20.5465 7.96484C20.1123 7.96484 19.696 7.80116 19.389 7.50981C19.082 7.21847 18.9095 6.82332 18.9095 6.41129C18.9095 5.99926 19.082 5.60411 19.389 5.31277C19.696 5.02142 20.1123 4.85774 20.5465 4.85774ZM13.6711 6.722C15.4078 6.722 17.0733 7.37671 18.3012 8.54209C19.5292 9.70748 20.2191 11.2881 20.2191 12.9362C20.2191 14.5843 19.5292 16.1649 18.3012 17.3303C17.0733 18.4957 15.4078 19.1504 13.6711 19.1504C11.9345 19.1504 10.269 18.4957 9.04102 17.3303C7.81303 16.1649 7.12316 14.5843 7.12316 12.9362C7.12316 11.2881 7.81303 9.70748 9.04102 8.54209C10.269 7.37671 11.9345 6.722 13.6711 6.722ZM13.6711 9.20767C12.6291 9.20767 11.6298 9.6005 10.8931 10.2997C10.1563 10.999 9.74235 11.9473 9.74235 12.9362C9.74235 13.925 10.1563 14.8734 10.8931 15.5726C11.6298 16.2719 12.6291 16.6647 13.6711 16.6647C14.7131 16.6647 15.7124 16.2719 16.4492 15.5726C17.186 14.8734 17.5999 13.925 17.5999 12.9362C17.5999 11.9473 17.186 10.999 16.4492 10.2997C15.7124 9.6005 14.7131 9.20767 13.6711 9.20767Z" fill="#454955"/>
</svg>
