<svg width="38" height="38" viewBox="0 0 38 38" fill="none" xmlns="http://www.w3.org/2000/svg">
<circle cx="19" cy="19" r="19" fill="#A52A2D"/>
<path fill-rule="evenodd" clip-rule="evenodd" d="M31 18.5C31 14.2865 31 12.1805 29.989 10.667C29.5511 10.0116 28.9884 9.44887 28.333 9.011C26.8195 8 24.715 8 20.5 8H17.5C13.2865 8 11.1805 8 9.667 9.011C9.01158 9.44887 8.44887 10.0116 8.011 10.667C7 12.1805 7 14.285 7 18.5C7 22.715 7 24.8195 8.011 26.333C8.44887 26.9884 9.01158 27.5511 9.667 27.989C10.9885 28.8725 12.763 28.9835 16 28.9985L17.659 32.3165C17.7837 32.5653 17.9752 32.7745 18.212 32.9208C18.4488 33.067 18.7217 33.1444 19 33.1444C19.2783 33.1444 19.5512 33.067 19.788 32.9208C20.0248 32.7745 20.2163 32.5653 20.341 32.3165L22 29C25.237 28.985 27.01 28.8725 28.333 27.989C28.9884 27.5511 29.5511 26.9884 29.989 26.333C31 24.8195 31 22.715 31 18.5ZM14.5 14C14.1022 14 13.7206 14.158 13.4393 14.4393C13.158 14.7206 13 15.1022 13 15.5C13 15.8978 13.158 16.2794 13.4393 16.5607C13.7206 16.842 14.1022 17 14.5 17H23.5C23.8978 17 24.2794 16.842 24.5607 16.5607C24.842 16.2794 25 15.8978 25 15.5C25 15.1022 24.842 14.7206 24.5607 14.4393C24.2794 14.158 23.8978 14 23.5 14H14.5ZM14.5 20C14.1022 20 13.7206 20.158 13.4393 20.4393C13.158 20.7206 13 21.1022 13 21.5C13 21.8978 13.158 22.2794 13.4393 22.5607C13.7206 22.842 14.1022 23 14.5 23H19C19.3978 23 19.7794 22.842 20.0607 22.5607C20.342 22.2794 20.5 21.8978 20.5 21.5C20.5 21.1022 20.342 20.7206 20.0607 20.4393C19.7794 20.158 19.3978 20 19 20H14.5Z" fill="white"/>
</svg>
