<svg width="38" height="38" viewBox="0 0 38 38" fill="none" xmlns="http://www.w3.org/2000/svg">
<circle cx="19" cy="19" r="19" fill="#A52A2D"/>
<path d="M19.0001 26.5648C19.4201 26.5648 19.7724 26.4199 20.057 26.1301C20.3415 25.8403 20.4834 25.4821 20.4824 25.0554C20.4814 24.6287 20.3391 24.2705 20.0555 23.9807C19.7719 23.6908 19.4201 23.5459 19.0001 23.5459C18.5801 23.5459 18.2283 23.6908 17.9447 23.9807C17.6611 24.2705 17.5188 24.6287 17.5178 25.0554C17.5168 25.4821 17.6591 25.8408 17.9447 26.1316C18.2303 26.4224 18.5821 26.5668 19.0001 26.5648ZM17.5178 20.5271H20.4824V11.4704H17.5178V20.5271ZM13.4416 32.6026L5.65967 24.678V13.3572L13.4416 5.43262H24.5586L32.3405 13.3572V24.678L24.5586 32.6026H13.4416ZM14.7015 29.5837H23.2987L29.376 23.395V14.6402L23.2987 8.4515H14.7015L8.62421 14.6402V23.395L14.7015 29.5837Z" fill="white"/>
</svg>
