<svg width="13" height="13" viewBox="0 0 13 13" fill="none" xmlns="http://www.w3.org/2000/svg">
<path d="M12.8333 5.8335C12.8333 5.52408 12.7104 5.22733 12.4916 5.00854C12.2728 4.78975 11.9761 4.66683 11.6667 4.66683H7.98L8.54 2.001C8.55167 1.94266 8.5575 1.8785 8.5575 1.81433C8.5575 1.57516 8.45833 1.3535 8.30083 1.196L7.6825 0.583496L3.84417 4.42183C3.62833 4.63766 3.5 4.92933 3.5 5.25016V11.0835C3.5 11.3929 3.62292 11.6897 3.84171 11.9085C4.0605 12.1272 4.35725 12.2502 4.66667 12.2502H9.91667C10.4008 12.2502 10.815 11.9585 10.99 11.5385L12.7517 7.426C12.8042 7.29183 12.8333 7.15183 12.8333 7.00016V5.8335ZM0 12.2502H2.33333V5.25016H0V12.2502Z" fill="white"/>
</svg>
