<svg width="20" height="21" viewBox="0 0 20 21" fill="none" xmlns="http://www.w3.org/2000/svg">
<path d="M9.99963 10.5C11.392 10.5 12.7274 9.96663 13.7119 9.01723C14.6965 8.06783 15.2496 6.78016 15.2496 5.4375C15.2496 4.09484 14.6965 2.80718 13.7119 1.85777C12.7274 0.908369 11.392 0.375 9.99963 0.375C8.60724 0.375 7.27188 0.908369 6.28732 1.85777C5.30275 2.80718 4.74963 4.09484 4.74963 5.4375C4.74963 6.78016 5.30275 8.06783 6.28732 9.01723C7.27188 9.96663 8.60724 10.5 9.99963 10.5ZM18.2859 20.625C19.3674 20.625 20.1986 19.6783 19.8119 18.7029C19.0532 16.7861 17.7087 15.1366 15.9564 13.9728C14.204 12.8091 12.1265 12.186 9.99875 12.186C7.87103 12.186 5.79348 12.8091 4.04113 13.9728C2.28879 15.1366 0.944289 16.7861 0.185625 18.7029C-0.199375 19.6783 0.630125 20.625 1.71163 20.625H18.2859Z" fill="#A52A2D"/>
</svg>
