<svg width="14" height="14" viewBox="0 0 14 14" fill="none" xmlns="http://www.w3.org/2000/svg">
<path fill-rule="evenodd" clip-rule="evenodd" d="M7.00015 0.333496C7.87563 0.333492 8.74254 0.505927 9.55138 0.840956C10.3602 1.17599 11.0952 1.66705 11.7142 2.2861C12.3333 2.90516 12.8243 3.64009 13.1594 4.44893C13.4944 5.25776 13.6668 6.12467 13.6668 7.00015C13.6668 10.6821 10.6821 13.6668 7.00015 13.6668C3.31828 13.6668 0.333496 10.6821 0.333496 7.00015C0.333496 3.31828 3.31828 0.333496 7.00015 0.333496ZM7.66684 7.66684H6.3335C4.68303 7.66684 3.26606 8.66643 2.6549 10.0933C3.6219 11.4493 5.20778 12.3335 7.00015 12.3335C8.79253 12.3335 10.3784 11.4493 11.3454 10.0932C10.7343 8.66643 9.31731 7.66684 7.66684 7.66684ZM7.00015 2.3335C5.89559 2.3335 5.00015 3.22893 5.00015 4.3335C5.00015 5.43806 5.89559 6.3335 7.00015 6.3335C8.10472 6.3335 9.00015 5.43806 9.00015 4.3335C9.00015 3.22893 8.10475 2.3335 7.00015 2.3335Z" fill="white"/>
</svg>
