<svg width="34" height="34" viewBox="0 0 34 34" fill="none" xmlns="http://www.w3.org/2000/svg">
<path fill-rule="evenodd" clip-rule="evenodd" d="M16.9997 3.66659C14.6676 3.66616 12.3762 4.2774 10.3542 5.4393C8.33221 6.6012 6.6503 8.27312 5.47638 10.2882C4.30247 12.3032 3.67759 14.5909 3.66414 16.923C3.65068 19.255 4.24911 21.5498 5.39969 23.5783C6.17738 22.5675 7.17707 21.7492 8.3215 21.1866C9.46593 20.6239 10.7244 20.3319 11.9997 20.3333H21.9997C23.275 20.3319 24.5335 20.6239 25.6779 21.1866C26.8223 21.7492 27.822 22.5675 28.5997 23.5783C29.7503 21.5498 30.3487 19.255 30.3352 16.923C30.3218 14.5909 29.6969 12.3032 28.523 10.2882C27.3491 8.27312 25.6672 6.6012 23.6452 5.4393C21.6232 4.2774 19.3318 3.66616 16.9997 3.66659ZM30.238 27.1266C30.4469 26.8544 30.6469 26.5755 30.838 26.2899C32.6857 23.5444 33.6707 20.3093 33.6664 16.9999C33.6664 7.79492 26.2047 0.333252 16.9997 0.333252C7.79469 0.333252 0.333025 7.79492 0.333025 16.9999C0.327773 20.6612 1.53309 24.2215 3.76136 27.1266L3.75302 27.1566L4.34469 27.8449C5.90783 29.6724 7.84867 31.1393 10.0334 32.1443C12.2182 33.1494 14.5949 33.6687 16.9997 33.6666C17.3597 33.6666 17.7175 33.6555 18.073 33.6333C21.0803 33.4436 23.9792 32.4382 26.458 30.7249C27.6435 29.9071 28.718 28.939 29.6547 27.8449L30.2464 27.1566L30.238 27.1266ZM16.9997 6.99992C15.6736 6.99992 14.4018 7.5267 13.4642 8.46439C12.5265 9.40207 11.9997 10.6738 11.9997 11.9999C11.9997 13.326 12.5265 14.5978 13.4642 15.5355C14.4018 16.4731 15.6736 16.9999 16.9997 16.9999C18.3258 16.9999 19.5975 16.4731 20.5352 15.5355C21.4729 14.5978 21.9997 13.326 21.9997 11.9999C21.9997 10.6738 21.4729 9.40207 20.5352 8.46439C19.5975 7.5267 18.3258 6.99992 16.9997 6.99992Z" fill="white"/>
</svg>
