<svg width="52" height="52" viewBox="0 0 52 52" fill="none" xmlns="http://www.w3.org/2000/svg">
<path fill-rule="evenodd" clip-rule="evenodd" d="M26.0003 5.33317C22.3856 5.33251 18.834 6.27993 15.6999 8.08088C12.5657 9.88182 9.9588 12.4733 8.13923 15.5966C6.31965 18.72 5.3511 22.2659 5.33024 25.8806C5.30938 29.4952 6.23695 33.0521 8.02035 36.1963C9.22576 34.6297 10.7753 33.3613 12.5492 32.4891C14.323 31.617 16.2737 31.1644 18.2503 31.1665H33.7503C35.727 31.1644 37.6777 31.617 39.4515 32.4891C41.2254 33.3613 42.7749 34.6297 43.9803 36.1963C45.7637 33.0521 46.6913 29.4952 46.6705 25.8806C46.6496 22.2659 45.681 18.72 43.8615 15.5966C42.0419 12.4733 39.4349 9.88182 36.3008 8.08088C33.1667 6.27993 29.6151 5.33251 26.0003 5.33317ZM46.5198 41.6962C46.8435 41.2742 47.1535 40.842 47.4498 40.3993C50.3137 36.1438 51.8404 31.1294 51.8337 25.9998C51.8337 11.7321 40.2681 0.166504 26.0003 0.166504C11.7326 0.166504 0.167019 11.7321 0.167019 25.9998C0.158878 31.6748 2.02712 37.1932 5.48093 41.6962L5.46802 41.7427L6.3851 42.8096C8.80797 45.6422 11.8163 47.9158 15.2026 49.4737C18.589 51.0315 22.2729 51.8365 26.0003 51.8332C26.5583 51.8332 27.1129 51.816 27.664 51.7815C32.3254 51.4876 36.8185 49.9291 40.6608 47.2736C42.4983 46.0059 44.1638 44.5054 45.6156 42.8096L46.5327 41.7427L46.5198 41.6962ZM26.0003 10.4998C23.9449 10.4998 21.9737 11.3164 20.5203 12.7698C19.0669 14.2232 18.2503 16.1944 18.2503 18.2498C18.2503 20.3053 19.0669 22.2765 20.5203 23.7299C21.9737 25.1833 23.9449 25.9998 26.0003 25.9998C28.0558 25.9998 30.027 25.1833 31.4804 23.7299C32.9338 22.2765 33.7503 20.3053 33.7503 18.2498C33.7503 16.1944 32.9338 14.2232 31.4804 12.7698C30.027 11.3164 28.0558 10.4998 26.0003 10.4998Z" fill="#A52A2D"/>
</svg>
