<svg width="31" height="32" viewBox="0 0 31 32" fill="none" xmlns="http://www.w3.org/2000/svg">
<path d="M28.4833 31.75L17.7208 20.725C16.8667 21.425 15.8844 21.9792 14.774 22.3875C13.6635 22.7958 12.4819 23 11.2292 23C8.1257 23 5.49942 21.8987 3.35033 19.696C1.20125 17.4933 0.12614 14.803 0.125001 11.625C0.123862 8.447 1.19897 5.75667 3.35033 3.554C5.5017 1.35133 8.12797 0.25 11.2292 0.25C14.3304 0.25 16.9572 1.35133 19.1097 3.554C21.2622 5.75667 22.3368 8.447 22.3333 11.625C22.3333 12.9083 22.134 14.1187 21.7354 15.2562C21.3368 16.3937 20.7958 17.4 20.1125 18.275L30.875 29.3L28.4833 31.75ZM11.2292 19.5C13.3646 19.5 15.18 18.7347 16.6753 17.204C18.1707 15.6733 18.9178 13.8137 18.9167 11.625C18.9155 9.43633 18.1684 7.57725 16.6753 6.04775C15.1823 4.51825 13.3669 3.75233 11.2292 3.75C9.09147 3.74767 7.27665 4.51358 5.78471 6.04775C4.29277 7.58192 3.54508 9.441 3.54167 11.625C3.53825 13.809 4.28593 15.6687 5.78471 17.204C7.28349 18.7393 9.09831 19.5047 11.2292 19.5Z" fill="white"/>
</svg>
