<svg width="12" height="12" viewBox="0 0 12 12" fill="none" xmlns="http://www.w3.org/2000/svg">
<path d="M5.66775 1.54964C5.76669 1.59403 5.85068 1.66607 5.90963 1.75708C5.96857 1.8481 5.99996 1.95421 6 2.06264V9.93764C5.99988 10.046 5.96847 10.152 5.90953 10.243C5.8506 10.3339 5.76665 10.4059 5.66778 10.4502C5.56892 10.4946 5.45934 10.5095 5.35223 10.493C5.24511 10.4766 5.14503 10.4296 5.064 10.3576L2.6925 8.25014H1.5C1.30109 8.25014 1.11032 8.17113 0.96967 8.03047C0.829018 7.88982 0.75 7.69906 0.75 7.50014V4.50014C0.75 4.30123 0.829018 4.11047 0.96967 3.96981C1.11032 3.82916 1.30109 3.75014 1.5 3.75014H2.6925L5.064 1.64264C5.14498 1.57063 5.24504 1.52354 5.35215 1.50705C5.45926 1.49055 5.56885 1.50534 5.66775 1.54964ZM9.7125 2.28764C9.661 2.23238 9.5989 2.18805 9.5299 2.15731C9.4609 2.12656 9.38642 2.11003 9.31089 2.1087C9.23536 2.10737 9.16034 2.12126 9.0903 2.14955C9.02026 2.17784 8.95663 2.21995 8.90322 2.27336C8.84981 2.32678 8.8077 2.3904 8.77941 2.46045C8.75112 2.53049 8.73722 2.60551 8.73856 2.68104C8.73989 2.75656 8.75642 2.83105 8.78716 2.90005C8.81791 2.96905 8.86223 3.03115 8.9175 3.08264C9.30075 3.46571 9.60476 3.92053 9.81219 4.42113C10.0196 4.92172 10.1264 5.45828 10.1264 6.00014C10.1264 6.54201 10.0196 7.07857 9.81219 7.57916C9.60476 8.07975 9.30075 8.53458 8.9175 8.91764C8.86223 8.96914 8.81791 9.03124 8.78716 9.10024C8.75642 9.16924 8.73989 9.24372 8.73856 9.31925C8.73722 9.39478 8.75112 9.4698 8.77941 9.53984C8.8077 9.60988 8.84981 9.67351 8.90322 9.72692C8.95663 9.78034 9.02026 9.82244 9.0903 9.85073C9.16034 9.87903 9.23536 9.89292 9.31089 9.89159C9.38642 9.89025 9.4609 9.87372 9.5299 9.84298C9.5989 9.81223 9.661 9.76791 9.7125 9.71264C10.2001 9.22513 10.5868 8.64635 10.8507 8.00936C11.1146 7.37236 11.2504 6.68963 11.2504 6.00014C11.2504 5.31066 11.1146 4.62793 10.8507 3.99093C10.5868 3.35394 10.2001 2.77516 9.7125 2.28764Z" fill="white"/>
<path d="M8.121 3.87923C8.06951 3.82396 8.00741 3.77963 7.93841 3.74889C7.86941 3.71815 7.79492 3.70162 7.7194 3.70028C7.64387 3.69895 7.56885 3.71284 7.49881 3.74113C7.42876 3.76943 7.36514 3.81153 7.31172 3.86495C7.25831 3.91836 7.2162 3.98199 7.18791 4.05203C7.15962 4.12207 7.14573 4.19709 7.14706 4.27262C7.14839 4.34815 7.16492 4.42263 7.19567 4.49163C7.22641 4.56063 7.27074 4.62273 7.326 4.67423C7.50017 4.84834 7.63832 5.05506 7.73258 5.28258C7.82684 5.5101 7.87535 5.75396 7.87535 6.00023C7.87535 6.2465 7.82684 6.49035 7.73258 6.71787C7.63832 6.94539 7.50017 7.15211 7.326 7.32623C7.27074 7.37772 7.22641 7.43982 7.19567 7.50882C7.16492 7.57782 7.14839 7.65231 7.14706 7.72783C7.14573 7.80336 7.15962 7.87838 7.18791 7.94842C7.2162 8.01847 7.25831 8.08209 7.31172 8.1355C7.36514 8.18892 7.42876 8.23103 7.49881 8.25932C7.56885 8.28761 7.64387 8.3015 7.7194 8.30017C7.79492 8.29884 7.86941 8.28231 7.93841 8.25156C8.00741 8.22082 8.06951 8.17649 8.121 8.12123C8.68342 7.55864 8.99936 6.79572 8.99936 6.00023C8.99936 5.20473 8.68342 4.44181 8.121 3.87923Z" fill="white"/>
</svg>
