<svg width="11" height="11" viewBox="0 0 11 11" fill="none" xmlns="http://www.w3.org/2000/svg">
<path d="M2.58583 4.84458C3.36583 6.3775 4.6225 7.63417 6.15542 8.41417L7.34708 7.2225C7.49875 7.07083 7.71 7.0275 7.89958 7.08708C8.50625 7.2875 9.15625 7.39583 9.83333 7.39583C9.97699 7.39583 10.1148 7.4529 10.2164 7.55448C10.3179 7.65607 10.375 7.79384 10.375 7.9375V9.83333C10.375 9.97699 10.3179 10.1148 10.2164 10.2164C10.1148 10.3179 9.97699 10.375 9.83333 10.375C7.39113 10.375 5.04896 9.40484 3.32206 7.67794C1.59516 5.95104 0.625 3.60887 0.625 1.16667C0.625 1.02301 0.682068 0.885233 0.78365 0.78365C0.885233 0.682068 1.02301 0.625 1.16667 0.625H3.0625C3.20616 0.625 3.34393 0.682068 3.44552 0.78365C3.5471 0.885233 3.60417 1.02301 3.60417 1.16667C3.60417 1.84375 3.7125 2.49375 3.91292 3.10042C3.9725 3.29 3.92917 3.50125 3.7775 3.65292L2.58583 4.84458Z" fill="white"/>
</svg>
