<svg width="14" height="14" viewBox="0 0 14 14" fill="none" xmlns="http://www.w3.org/2000/svg">
<path fill-rule="evenodd" clip-rule="evenodd" d="M7.00015 0.333496C10.6821 0.333496 13.6668 3.31825 13.6668 7.00015C13.6668 10.682 10.6821 13.6668 7.00015 13.6668C3.31828 13.6668 0.333496 10.6821 0.333496 7.00015C0.333496 3.31825 3.31828 0.333496 7.00015 0.333496ZM7.66828 6.3335H6.33496V10.3335H7.66828V6.3335ZM7.00693 3.50015C6.52087 3.50015 6.16828 3.85078 6.16828 4.32425C6.16828 4.81687 6.51159 5.16684 7.00693 5.16684C7.48303 5.16684 7.83496 4.81684 7.83496 4.3335C7.83496 3.85081 7.48303 3.50015 7.00693 3.50015Z" fill="white"/>
</svg>
